<svg width="481" height="157" viewBox="0 0 481 157" fill="none" xmlns="http://www.w3.org/2000/svg">
<g filter="url(#filter0_d_2031_519)">
<path fill-rule="evenodd" clip-rule="evenodd" d="M30.2441 137.291C40.1601 143.436 52.3568 146.458 66.9333 146.458C77.3451 146.458 86.7652 144.644 95.1938 141.119C103.622 137.593 110.564 132.456 116.017 125.707C121.471 118.958 125.041 110.9 126.628 101.331H101.441C100.251 105.763 98.0695 109.591 94.9955 112.915C91.9216 116.239 88.0543 118.757 83.493 120.469C78.9316 122.182 73.577 123.088 67.5282 123.088C57.7114 123.088 49.7786 120.772 43.5316 116.037C37.2845 111.303 32.8223 105.159 29.9466 97.5031C27.071 89.8477 25.6828 81.3864 25.6828 72.9252C25.6828 64.4639 27.071 56.5063 29.7483 49.1531C32.4256 41.7998 36.8878 35.7561 42.9366 31.0218C48.9853 26.2875 57.0173 23.9707 66.9333 23.9707C76.056 23.9707 83.493 25.8846 89.1451 29.813C94.7972 33.7415 98.5653 39.0801 100.449 45.9297H124.446C122.959 36.2597 119.686 28.1006 114.629 21.4525C109.572 14.8044 102.928 9.66719 94.8964 6.04094C86.8644 2.41469 77.5434 0.601562 66.9333 0.601562C52.6543 0.601562 40.5568 3.72417 30.6408 9.96938C20.7248 16.2146 13.1886 24.8773 8.03232 35.8568C2.87601 46.8363 0.297852 59.5282 0.297852 73.9325C0.297852 88.3367 2.77685 100.928 7.834 111.807C12.8912 122.685 20.3281 131.147 30.2441 137.291ZM165.202 139.608C172.936 144.04 182.158 146.256 192.867 146.256C203.577 146.256 212.799 144.04 220.434 139.608C228.069 135.176 233.92 128.93 237.985 120.771C242.051 112.612 244.034 103.446 244.034 92.2649C244.034 81.0839 241.952 71.4139 237.886 63.1541C233.82 54.8943 227.871 48.4477 220.236 43.9148C212.6 39.382 203.577 37.0653 192.867 37.0653C182.158 37.0653 172.936 39.382 165.301 43.9148C157.666 48.4477 151.716 54.7936 147.452 62.9527C143.188 71.1117 141.106 80.8825 141.106 91.862C141.106 102.841 143.188 112.511 147.353 120.671C151.518 128.83 157.467 135.176 165.202 139.608ZM208.634 119.462C204.568 122.383 199.313 123.894 192.669 123.894C186.025 123.894 180.77 122.484 176.704 119.563C172.639 116.641 169.664 112.814 167.78 107.878C165.896 102.942 164.904 97.805 164.904 92.0634C164.904 86.3219 165.797 80.9832 167.681 76.0475C169.565 71.1117 172.54 67.1833 176.605 64.1614C180.671 61.1395 186.025 59.6286 192.669 59.6286C199.313 59.6286 204.568 61.1395 208.634 64.1614C212.699 67.1833 215.575 71.2125 217.459 76.1482C219.343 81.0839 220.236 86.4226 220.236 92.0634C220.236 97.7043 219.343 102.942 217.459 107.777C215.575 112.612 212.699 116.541 208.634 119.462ZM306.106 146.255C295.496 146.255 286.77 143.838 279.928 138.902C273.086 133.966 267.93 127.419 264.558 119.26C261.187 111.101 259.501 101.934 259.501 91.8615C259.501 81.7885 261.286 72.0178 264.856 63.758C268.425 55.4982 273.78 48.9508 280.919 44.2165C288.059 39.4823 296.983 37.0648 307.693 37.0648C311.659 37.0648 315.526 37.4677 319.294 38.3742C323.062 39.2808 326.632 40.5903 330.004 42.4034C333.375 44.2165 336.152 46.634 338.432 49.5552V2.41391H362.627V144.845H339.225L338.829 131.549C336.35 134.873 333.375 137.693 330.004 139.809C326.632 141.924 322.864 143.536 318.799 144.644C314.733 145.752 310.469 146.255 306.106 146.255ZM310.667 124.095C317.014 124.095 322.269 122.584 326.335 119.562C330.4 116.54 333.474 112.511 335.557 107.474C337.639 102.438 338.631 97.0994 338.631 91.4585C338.631 85.5155 337.639 80.1769 335.557 75.3419C333.474 70.5069 330.4 66.5784 326.335 63.6573C322.269 60.7361 317.014 59.2252 310.667 59.2252C303.925 59.2252 298.57 60.7361 294.703 63.8587C290.835 66.9813 287.96 71.0105 286.175 76.047C284.39 81.0834 283.498 86.5228 283.498 92.2644C283.498 96.5957 283.993 100.625 284.985 104.453C285.977 108.28 287.563 111.705 289.646 114.626C291.728 117.547 294.504 119.864 297.975 121.577C301.446 123.289 305.61 124.095 310.667 124.095ZM405.17 139.406C412.805 143.939 422.027 146.256 432.835 146.256C439.975 146.256 446.718 145.148 453.163 142.831C459.608 140.514 465.062 136.989 469.723 132.154C474.383 127.319 477.556 121.073 479.242 113.418H455.047C454.254 116.138 452.667 118.354 450.387 120.066C448.106 121.778 445.429 123.088 442.355 123.995C439.281 124.901 436.108 125.304 432.835 125.304C427.183 125.304 422.423 124.196 418.655 121.879C414.887 119.562 412.012 116.541 409.929 112.612C407.847 108.684 406.657 104.453 406.26 99.7188H479.639C479.936 98.0064 480.135 96.294 480.234 94.783C480.281 94.0654 480.35 93.325 480.421 92.5727C480.499 91.7411 480.578 90.8949 480.63 90.0488C480.729 83.0984 479.837 76.4503 477.854 70.1044C475.871 63.7584 472.896 58.1176 468.83 53.1819C464.765 48.2461 459.807 44.3177 453.857 41.3965C447.908 38.4754 440.966 37.0652 433.034 37.0652C422.324 37.0652 413.202 39.382 405.566 44.1162C397.931 48.8505 392.18 55.2972 388.114 63.557C384.049 71.8168 382.065 81.2853 382.065 92.0634C382.065 102.841 384.049 112.209 387.916 120.368C391.783 128.527 397.534 134.873 405.17 139.406ZM457.03 81.3861H406.657C406.955 77.3569 408.045 73.5292 410.029 69.9029C412.012 66.2767 414.887 63.3555 418.556 61.0388C422.225 58.722 426.886 57.614 432.439 57.614C437.595 57.614 441.958 58.6213 445.627 60.7366C449.296 62.8519 452.072 65.6723 454.055 69.2986C456.039 72.9248 457.03 76.954 457.03 81.3861Z" fill="white"/>
</g>
<defs>
<filter id="filter0_d_2031_519" x="0.297852" y="0.601562" width="480.34" height="155.727" filterUnits="userSpaceOnUse" color-interpolation-filters="sRGB">
<feFlood flood-opacity="0" result="BackgroundImageFix"/>
<feColorMatrix in="SourceAlpha" type="matrix" values="0 0 0 0 0 0 0 0 0 0 0 0 0 0 0 0 0 0 127 0" result="hardAlpha"/>
<feOffset dy="9.87147"/>
<feComposite in2="hardAlpha" operator="out"/>
<feColorMatrix type="matrix" values="0 0 0 0 0 0 0 0 0 0 0 0 0 0 0 0 0 0 0.25 0"/>
<feBlend mode="normal" in2="BackgroundImageFix" result="effect1_dropShadow_2031_519"/>
<feBlend mode="normal" in="SourceGraphic" in2="effect1_dropShadow_2031_519" result="shape"/>
</filter>
</defs>
</svg>
