<svg width="316" height="163" viewBox="0 0 316 163" fill="none" xmlns="http://www.w3.org/2000/svg">
<g filter="url(#filter0_d_2031_514)">
<path fill-rule="evenodd" clip-rule="evenodd" d="M163.968 151.845V60.7855H146.913V45.6761H163.968V34.3944C163.968 26.4368 165.059 19.9901 167.241 14.9537C169.422 9.91722 172.893 6.19024 177.752 3.77274C182.61 1.35524 188.957 0.146484 196.889 0.146484H208.789V15.2559H198.674C193.915 15.2559 190.246 16.0617 187.668 17.6734C185.089 19.285 183.305 21.7025 182.313 24.8251C181.321 27.9478 180.826 31.8762 180.826 36.409V45.6761H208.789V60.7855H180.826V151.845H163.968ZM110.52 26.7373C112.603 28.8526 115.28 29.9606 118.75 29.9606C121.924 29.9606 124.601 28.8526 126.882 26.7373C129.162 24.622 130.253 21.7008 130.253 18.4775C130.253 15.2541 129.063 12.5345 126.783 10.4191C124.502 8.30383 121.824 7.19581 118.75 7.19581C115.478 7.19581 112.702 8.2031 110.619 10.3184C108.537 12.4337 107.446 15.1534 107.446 18.4775C107.446 21.8015 108.438 24.622 110.52 26.7373ZM110.421 45.6744V151.843H127.278V45.6744H110.421ZM0.552002 9.41303V151.844H94.7539V135.929H17.8058V9.41303H0.552002ZM242.103 146.103C249.342 150.736 258.564 153.053 269.669 153.053C276.313 153.053 282.659 152.046 288.708 149.93C294.757 147.815 300.012 144.592 304.375 140.26C308.738 135.929 311.713 130.288 313.3 123.439H296.046C294.856 127.065 292.873 129.986 289.997 132.101C287.122 134.217 283.948 135.728 280.478 136.634C277.007 137.541 273.537 137.944 270.066 137.944C263.224 137.944 257.473 136.533 252.812 133.612C248.152 130.691 244.582 126.763 242.103 121.827C239.624 116.891 238.037 111.25 237.542 105.106H315.085L315.382 101.48L315.68 97.8533C315.977 91.5074 315.184 85.2622 313.498 79.017C311.812 72.7718 309.036 67.0302 305.169 61.7923C301.301 56.5544 296.443 52.3237 290.592 49.2011C284.742 46.0785 277.701 44.4669 269.471 44.4669C258.861 44.4669 249.937 46.7836 242.698 51.5179C235.459 56.2522 229.906 62.5981 226.138 70.7572C222.37 78.9163 220.486 88.3848 220.486 98.8606C220.486 109.336 222.271 118.704 225.841 126.863C229.411 135.022 234.864 141.469 242.103 146.103ZM298.426 90.1979H237.938C238.434 84.6578 239.921 79.6214 242.301 75.0885C244.681 70.5557 248.053 66.8287 252.515 64.0083C256.977 61.1879 262.431 59.7777 268.876 59.7777C274.826 59.7777 279.982 61.0872 284.246 63.6054C288.51 66.1236 291.98 69.7499 294.459 74.2827C296.938 78.8155 298.327 84.1542 298.426 90.1979Z" fill="white"/>
</g>
<defs>
<filter id="filter0_d_2031_514" x="0.552002" y="0.146484" width="315.189" height="162.778" filterUnits="userSpaceOnUse" color-interpolation-filters="sRGB">
<feFlood flood-opacity="0" result="BackgroundImageFix"/>
<feColorMatrix in="SourceAlpha" type="matrix" values="0 0 0 0 0 0 0 0 0 0 0 0 0 0 0 0 0 0 127 0" result="hardAlpha"/>
<feOffset dy="9.87147"/>
<feComposite in2="hardAlpha" operator="out"/>
<feColorMatrix type="matrix" values="0 0 0 0 0 0 0 0 0 0 0 0 0 0 0 0 0 0 0.25 0"/>
<feBlend mode="normal" in2="BackgroundImageFix" result="effect1_dropShadow_2031_514"/>
<feBlend mode="normal" in="SourceGraphic" in2="effect1_dropShadow_2031_514" result="shape"/>
</filter>
</defs>
</svg>
